<svg width="255" height="188" viewBox="0 0 255 188" fill="none" xmlns="http://www.w3.org/2000/svg">
<path d="M229.205 174.996H212.332V175.123H229.205V174.996Z" fill="#EBEBEB"/>
<path d="M168.744 176.381H164.316V176.508H168.744V176.381Z" fill="#EBEBEB"/>
<path d="M211.823 170.266H202.047V170.393H211.823V170.266Z" fill="#EBEBEB"/>
<path d="M48.7292 171.121H26.7256V171.248H48.7292V171.121Z" fill="#EBEBEB"/>
<path d="M56.4928 171.121H53.2679V171.248H56.4928V171.121Z" fill="#EBEBEB"/>
<path d="M114.705 173.273H66.9785V173.401H114.705V173.273Z" fill="#EBEBEB"/>
<path d="M121.455 144.075H23.0783C22.3067 144.075 21.5668 143.769 21.0213 143.223C20.4757 142.678 20.1693 141.938 20.1693 141.166V2.88354C20.176 2.11645 20.4854 1.38305 21.0302 0.843005C21.5751 0.302956 22.3111 -2.9409e-05 23.0783 2.14103e-09H121.455C121.837 2.14103e-09 122.215 0.0752432 122.568 0.221435C122.921 0.367627 123.242 0.581904 123.512 0.852031C123.782 1.12216 123.996 1.44285 124.142 1.79578C124.289 2.14872 124.364 2.527 124.364 2.90901V141.166C124.364 141.548 124.289 141.926 124.142 142.279C123.996 142.632 123.782 142.953 123.512 143.223C123.242 143.493 122.921 143.708 122.568 143.854C122.215 144 121.837 144.075 121.455 144.075ZM23.0783 0.101892C22.3409 0.103239 21.6342 0.396737 21.1128 0.918105C20.5915 1.43947 20.298 2.14622 20.2966 2.88354V141.166C20.298 141.903 20.5915 142.61 21.1128 143.132C21.6342 143.653 22.3409 143.946 23.0783 143.948H121.455C122.192 143.946 122.899 143.653 123.42 143.132C123.942 142.61 124.235 141.903 124.237 141.166V2.88354C124.235 2.14622 123.942 1.43947 123.42 0.918105C122.899 0.396737 122.192 0.103239 121.455 0.101892H23.0783Z" fill="#EBEBEB"/>
<path d="M231.652 144.075H133.275C132.504 144.075 131.764 143.769 131.218 143.223C130.673 142.678 130.366 141.938 130.366 141.166V2.88354C130.373 2.11645 130.682 1.38305 131.227 0.843005C131.772 0.302956 132.508 -2.9409e-05 133.275 2.14103e-09H231.652C232.423 2.14104e-09 233.163 0.306485 233.709 0.852031C234.254 1.39758 234.561 2.1375 234.561 2.90901V141.166C234.561 141.938 234.254 142.678 233.709 143.223C233.163 143.769 232.423 144.075 231.652 144.075ZM133.275 0.101892C132.538 0.103239 131.831 0.396737 131.31 0.918105C130.788 1.43947 130.495 2.14622 130.494 2.88354V141.166C130.495 141.903 130.788 142.61 131.31 143.132C131.831 143.653 132.538 143.946 133.275 143.948H231.652C232.389 143.946 233.096 143.653 233.617 143.132C234.139 142.61 234.432 141.903 234.434 141.166V2.88354C234.432 2.14622 234.139 1.43947 233.617 0.918105C233.096 0.396737 232.389 0.103239 231.652 0.101892H133.275Z" fill="#EBEBEB"/>
<path d="M254.73 166.795H0V166.922H254.73V166.795Z" fill="#EBEBEB"/>
<path d="M206.761 72.8306L202.719 28.8457L143.895 34.2509L147.937 78.2357L206.761 72.8306Z" fill="#E6E6E6"/>
<path opacity="0.9" d="M199.631 32.5666L147.62 37.3457L151.036 74.5172L203.047 69.7381L199.631 32.5666Z" fill="#FAFAFA"/>
<path d="M175.713 39.4463L176.019 42.8138L155.818 44.6733L156.837 55.7795L157.933 67.4615L167.786 66.5546L183.609 65.1027L184.338 65.0313L195.291 64.0124L195.123 62.1529L192.23 62.4178C192.252 61.7561 192.494 61.1208 192.918 60.6117C193.341 60.1026 193.922 59.7487 194.568 59.6056L194.884 59.5343L194.222 52.356L192.27 52.5343L190.941 38.0605L175.713 39.4463ZM158.575 66.6616L157.632 56.4418L159.894 56.233C160.149 57.0411 160.673 57.738 161.378 58.2086C162.083 58.6791 162.927 58.8952 163.771 58.821L164.138 58.7904L163.868 55.8662L166.028 55.6726L166.971 65.8923L158.575 66.6616ZM167.699 65.8261L166.68 54.8727L163.058 55.2039L163.323 58.1027C162.661 58.0788 162.025 57.8357 161.516 57.4115C161.007 56.9873 160.654 56.4061 160.511 55.7592L160.439 55.4484L157.551 55.7133L156.613 45.3407L176.085 43.5525L177.104 54.6587L178.765 54.5059L181.383 54.2665L182.58 54.1544L183.518 64.3741L167.699 65.8261ZM178.703 53.7672L178.5 51.5612C179.096 51.5833 179.671 51.7834 180.153 52.1357C180.634 52.488 180.999 52.9764 181.2 53.5379L178.703 53.7672ZM193.534 53.1405L194.069 58.9637C193.261 59.2191 192.565 59.7426 192.095 60.4476C191.625 61.1526 191.41 61.9969 191.486 62.8407L191.516 63.2075L194.436 62.9375L194.471 63.3654L184.251 64.3028L183.314 54.083L192.311 53.2526L193.534 53.1405ZM190.253 38.8451L191.516 52.6005L183.248 53.3647L182.514 53.4309L181.954 53.4819C181.707 52.6633 181.186 51.9547 180.478 51.4758C179.77 50.9969 178.918 50.7769 178.067 50.8531L177.7 50.8836L177.97 53.8487H177.771L176.752 42.7425L176.508 40.1035L190.253 38.8451Z" fill="#E0E0E0"/>
<path d="M93.2963 76.2486L102.087 32.0527L42.9864 20.2968L34.1953 64.4927L93.2963 76.2486Z" fill="#E6E6E6"/>
<path opacity="0.9" d="M45.7302 24.3977L38.3007 61.748L90.5563 72.1423L97.9857 34.792L45.7302 24.3977Z" fill="#FAFAFA"/>
<path d="M72.5982 34.5916L71.9257 37.9744L51.6238 33.9395L49.4178 45.0966L47.0845 56.8142L56.9884 58.7858L72.8886 61.9444L73.6222 62.0922L84.6215 64.2778L84.9985 62.3826L82.0894 61.8069C82.3051 61.1672 82.7264 60.6168 83.2876 60.2418C83.8489 59.8667 84.5185 59.6879 85.192 59.7334H85.5232L86.9548 52.5245L84.9985 52.1323L87.8871 37.5872L72.5982 34.5916ZM47.9506 56.2487L49.9884 45.978L52.2606 46.4263C52.2755 47.2935 52.5869 48.1295 53.1431 48.795C53.6992 49.4606 54.4666 49.9155 55.3173 50.0842L55.6842 50.1555L56.27 47.2211L58.4403 47.6541L56.4025 57.9248L47.9506 56.2487ZM57.1208 58.0726L59.3064 47.0682L55.6689 46.3601L55.0932 49.2691C54.4535 49.0535 53.9031 48.6322 53.528 48.0709C53.1529 47.5097 52.9742 46.84 53.0197 46.1665V45.8353L50.1158 45.2596L52.1944 34.831L71.7576 38.7233L69.5364 49.8855L71.2074 50.2167L73.8362 50.7261L75.0385 50.9605L73.0007 61.2312L57.1208 58.0726ZM71.3857 49.4678L71.8238 47.2465C72.4003 47.4424 72.9052 47.806 73.2737 48.2907C73.6423 48.7754 73.8576 49.3591 73.8922 49.9671L71.3857 49.4678ZM86.0734 53.1512L84.9118 58.9998C84.0455 59.0158 83.2108 59.3278 82.5462 59.8838C81.8817 60.4399 81.4275 61.2066 81.259 62.0565L81.1826 62.4233L84.1171 63.0092L84.0305 63.4372L73.7598 61.3993L75.7976 51.1286L84.8405 52.927L86.0734 53.1512ZM86.9955 38.2087L84.2495 52.0202L75.9403 50.3644L75.2066 50.2218L74.6411 50.1097C74.6375 49.2349 74.331 48.3884 73.7737 47.7141C73.2164 47.0398 72.4428 46.5794 71.5844 46.411L71.2176 46.3346L70.6266 49.3098L70.4228 49.2691L72.6441 38.1119L73.1535 35.4627L86.9955 38.2087Z" fill="#E0E0E0"/>
<path d="M152.389 26.4921H147.407C146.016 26.4921 144.683 25.9398 143.7 24.9566C142.717 23.9735 142.164 22.6401 142.164 21.2497V16.3029C142.164 14.9125 142.717 13.5791 143.7 12.596C144.683 11.6129 146.016 11.0605 147.407 11.0605H152.389C153.779 11.0619 155.112 11.6146 156.095 12.5975C157.078 13.5803 157.63 14.9129 157.632 16.3029V21.2854C157.621 22.6691 157.064 23.9926 156.082 24.9678C155.1 25.9429 153.773 26.4908 152.389 26.4921ZM147.407 12.5533C146.916 12.5539 146.431 12.6516 145.978 12.8407C145.525 13.0298 145.115 13.3066 144.769 13.6551C144.424 14.0037 144.151 14.417 143.967 14.8715C143.782 15.3259 143.689 15.8124 143.693 16.3029V21.2854C143.694 22.27 144.086 23.2139 144.782 23.9101C145.478 24.6063 146.422 24.998 147.407 24.9994H152.389C153.374 24.998 154.318 24.6063 155.014 23.9101C155.71 23.2139 156.102 22.27 156.103 21.2854V16.3029C156.102 15.3183 155.71 14.3744 155.014 13.6782C154.318 12.982 153.374 12.5903 152.389 12.5889L147.407 12.5533Z" fill="#F0F0F0"/>
<path d="M147.824 22.0083L140.559 14.7434L142.725 12.5833L147.824 17.6881L157.071 8.44141L159.231 10.6015L147.824 22.0083Z" fill="#E0E0E0"/>
<path d="M45.4225 93.2316H41.5862C41.0524 93.2316 40.5239 93.1259 40.0311 92.9207C39.5384 92.7155 39.0911 92.4149 38.7151 92.036C38.339 91.6571 38.0417 91.2076 37.8402 90.7133C37.6388 90.219 37.5371 89.6897 37.5411 89.1559V85.3349C37.5425 84.263 37.9693 83.2354 38.7277 82.4779C39.4862 81.7204 40.5143 81.2949 41.5862 81.2949H45.4225C46.4935 81.2963 47.5203 81.7223 48.2777 82.4797C49.0351 83.2371 49.4611 84.2639 49.4625 85.3349V89.1559C49.4665 89.6892 49.365 90.2181 49.1639 90.7121C48.9627 91.2061 48.6658 91.6554 48.2904 92.0342C47.9149 92.413 47.4682 92.7138 46.976 92.9193C46.4838 93.1248 45.9558 93.2309 45.4225 93.2316ZM41.5862 82.4871C40.829 82.487 40.1026 82.7864 39.5652 83.3199C39.0279 83.8534 38.7234 84.5778 38.718 85.3349V89.1559C38.7193 89.9157 39.0221 90.6439 39.5599 91.1808C40.0976 91.7176 40.8264 92.019 41.5862 92.019H45.4225C46.1818 92.019 46.9101 91.7174 47.447 91.1804C47.984 90.6435 48.2856 89.9152 48.2856 89.1559V85.3349C48.2856 84.9589 48.2116 84.5866 48.0677 84.2392C47.9238 83.8919 47.7129 83.5762 47.447 83.3104C47.1812 83.0445 46.8655 82.8336 46.5182 82.6897C46.1708 82.5458 45.7985 82.4718 45.4225 82.4718L41.5862 82.4871Z" fill="#F0F0F0"/>
<path d="M41.9079 89.7451L36.3089 84.1513L37.9748 82.4853L41.9079 86.4184L49.0301 79.291L50.696 80.957L41.9079 89.7451Z" fill="#E0E0E0"/>
<path d="M219.577 124.476H215.736C214.665 124.475 213.638 124.049 212.881 123.291C212.123 122.534 211.697 121.507 211.696 120.436V116.595C211.697 115.524 212.123 114.497 212.881 113.739C213.638 112.982 214.665 112.556 215.736 112.555H219.577C220.648 112.556 221.675 112.982 222.432 113.739C223.19 114.497 223.616 115.524 223.617 116.595V120.436C223.616 121.507 223.19 122.534 222.432 123.291C221.675 124.049 220.648 124.475 219.577 124.476ZM215.736 113.732C214.977 113.732 214.248 114.033 213.711 114.57C213.174 115.107 212.873 115.835 212.873 116.595V120.436C212.873 120.812 212.947 121.184 213.091 121.532C213.235 121.879 213.445 122.195 213.711 122.461C213.977 122.726 214.293 122.937 214.64 123.081C214.988 123.225 215.36 123.299 215.736 123.299H219.577C219.953 123.299 220.326 123.225 220.673 123.081C221.02 122.937 221.336 122.726 221.602 122.461C221.868 122.195 222.079 121.879 222.222 121.532C222.366 121.184 222.44 120.812 222.44 120.436V116.595C222.44 115.835 222.139 115.107 221.602 114.57C221.065 114.033 220.337 113.732 219.577 113.732H215.736Z" fill="#F0F0F0"/>
<path d="M216.061 121.007L210.462 115.413L212.128 113.747L216.061 117.68L223.183 110.553L224.849 112.219L216.061 121.007Z" fill="#E0E0E0"/>
<path d="M127.365 187.841C181.919 187.841 226.144 185.259 226.144 182.074C226.144 178.889 181.919 176.307 127.365 176.307C72.8111 176.307 28.5862 178.889 28.5862 182.074C28.5862 185.259 72.8111 187.841 127.365 187.841Z" fill="#F5F5F5"/>
<path d="M76.4988 93.3828H80.549V94.9825H79.8867V102.161H77.1611V94.9825H76.4988V93.3828Z" fill="#407BFF"/>
<g opacity="0.2">
<path d="M76.4989 93.3828H80.5491V94.9825H79.8868V102.161H77.1612V94.9825H76.4989V93.3828Z" fill="black"/>
</g>
<path d="M100.443 88.2676L114.825 110.393V130.247H80.7729V110.393L100.443 88.2676Z" fill="#407BFF"/>
<path opacity="0.5" d="M100.443 88.2676L114.825 110.393V130.247H80.7729V110.393L100.443 88.2676Z" fill="white"/>
<path d="M84.6512 89.1698L86.8419 85.8125H100.444L116.472 110.394H102.864H84.6512V89.1698Z" fill="#407BFF"/>
<path opacity="0.2" d="M84.6512 89.1698L86.8419 85.8125H100.444L116.472 110.394H102.864H84.6512V89.1698Z" fill="black"/>
<path d="M102.864 110.394L86.8413 85.8125L70.8137 110.394H102.864Z" fill="#407BFF"/>
<path d="M86.8421 88.2676L101.219 110.393V130.247H72.4601V110.393L86.8421 88.2676Z" fill="#407BFF"/>
<path opacity="0.8" d="M86.8421 88.2676L101.219 110.393V130.247H72.4601V110.393L86.8421 88.2676Z" fill="white"/>
<path d="M93.2912 101.004H90.3821V108.712H93.2912V101.004Z" fill="#407BFF"/>
<path d="M83.1072 101.004H80.1982V108.712H83.1072V101.004Z" fill="#407BFF"/>
<path d="M90.3772 100.639H83.1072V109.075H90.3772V100.639Z" fill="#407BFF"/>
<path opacity="0.4" d="M90.3772 100.639H83.1072V109.075H90.3772V100.639Z" fill="white"/>
<path d="M89.47 101.549H84.0137V108.167H89.47V101.549Z" fill="#263238"/>
<path d="M82.3486 130.248H91.1419V116.054H82.3486V130.248Z" fill="#407BFF"/>
<path opacity="0.3" d="M82.3486 130.248H91.1419V116.054H82.3486V130.248Z" fill="white"/>
<path d="M82.8939 113.084H90.5969L92.4718 116.559H81.0191L82.8939 113.084Z" fill="#407BFF"/>
<path d="M89.6087 118.469H86.9136V130.253H89.6087V118.469Z" fill="#263238"/>
<path d="M86.5758 118.469H83.8807V130.253H86.5758V118.469Z" fill="#263238"/>
<path d="M109.34 144.59H68.374V179.31H109.34V144.59Z" fill="#407BFF"/>
<path opacity="0.6" d="M109.34 144.59H68.374V179.31H109.34V144.59Z" fill="white"/>
<path d="M118.907 144.59H98.6767V179.31H118.907V144.59Z" fill="#407BFF"/>
<path opacity="0.8" d="M118.907 144.59H98.6767V179.31H118.907V144.59Z" fill="white"/>
<path d="M94.8663 148.078H86.8066V157.427H94.8663V148.078Z" fill="#407BFF"/>
<path opacity="0.3" d="M94.8663 148.078H86.8066V157.427H94.8663V148.078Z" fill="white"/>
<path d="M93.8562 149.088H87.814V156.419H93.8562V149.088Z" fill="#263238"/>
<path d="M104.673 148.482H101.448V157.026H104.673V148.482Z" fill="#407BFF"/>
<path d="M115.958 148.482H112.733V157.026H115.958V148.482Z" fill="#407BFF"/>
<path d="M112.732 148.078H104.672V157.427H112.732V148.078Z" fill="#407BFF"/>
<path opacity="0.3" d="M112.732 148.078H104.672V157.427H112.732V148.078Z" fill="white"/>
<path d="M111.723 149.088H105.681V156.419H111.723V149.088Z" fill="#263238"/>
<path d="M87.4117 163.861H77.8441V179.303H87.4117V163.861Z" fill="#407BFF"/>
<path opacity="0.3" d="M87.4117 163.861H77.8441V179.303H87.4117V163.861Z" fill="white"/>
<path d="M86.8215 160.625H78.4358L76.3979 164.405H88.8593L86.8215 160.625Z" fill="#407BFF"/>
<path d="M82.4443 166.486H79.5149V179.304H82.4443V166.486Z" fill="#263238"/>
<path d="M85.7416 166.486H82.8122V179.304H85.7416V166.486Z" fill="#263238"/>
<path d="M113.904 144.883L105.9 130.027H71.8176L63.814 144.883H113.904Z" fill="#407BFF"/>
<path opacity="0.3" d="M113.904 144.883L105.9 130.027H71.8176L63.814 144.883H113.904Z" fill="black"/>
<path d="M123.472 144.883L115.468 130.027H102.12L94.1167 144.883H123.472Z" fill="#407BFF"/>
<path opacity="0.1" d="M123.472 144.883L115.468 130.027H102.12L94.1167 144.883H123.472Z" fill="black"/>
<path d="M79.4537 142.341V130.027H95.2062L88.5731 142.341H79.4537Z" fill="#407BFF"/>
<path opacity="0.8" d="M79.4537 142.341V130.027H95.2062L88.5731 142.341H79.4537Z" fill="white"/>
<path d="M78.9908 142.344H88.5585V132.776H78.9908V142.344Z" fill="#407BFF"/>
<path opacity="0.6" d="M78.9908 142.344H88.5585V132.776H78.9908V142.344Z" fill="white"/>
<path d="M85.7927 141.188H81.7578C81.5821 141.188 81.4137 141.118 81.2895 140.994C81.1653 140.869 81.0955 140.701 81.0955 140.525V140.041H86.455V140.525C86.455 140.701 86.3852 140.869 86.261 140.994C86.1368 141.118 85.9684 141.188 85.7927 141.188Z" fill="#407BFF"/>
<path d="M82.0825 136.116C82.0699 135.885 82.1043 135.655 82.1837 135.438C82.2632 135.222 82.3859 135.024 82.5444 134.856C82.703 134.689 82.894 134.556 83.1058 134.464C83.3176 134.373 83.5458 134.326 83.7765 134.326C84.0071 134.326 84.2353 134.373 84.4471 134.464C84.6589 134.556 84.8499 134.689 85.0085 134.856C85.167 135.024 85.2898 135.222 85.3692 135.438C85.4486 135.655 85.483 135.885 85.4704 136.116V139.768H82.0825V136.116Z" fill="#263238"/>
<path d="M85.4659 133.318L87.244 130.027H95.2068L93.4339 133.318H85.4659Z" fill="#407BFF"/>
<path opacity="0.2" d="M85.4659 133.318L87.244 130.027H95.2068L93.4339 133.318H85.4659Z" fill="black"/>
<path d="M88.2263 130.027L90.0043 133.318H77.5429L79.3209 130.027H88.2263Z" fill="#407BFF"/>
<path d="M80.4326 148.078H72.3729V157.427H80.4326V148.078Z" fill="#407BFF"/>
<path opacity="0.3" d="M80.4326 148.078H72.3729V157.427H80.4326V148.078Z" fill="white"/>
<path d="M79.4194 149.088H73.3773V156.419H79.4194V149.088Z" fill="#263238"/>
<path d="M120.521 178.964H195.478C195.8 178.968 196.12 178.905 196.416 178.776C196.712 178.648 196.977 178.459 197.195 178.22C197.412 177.982 197.576 177.7 197.676 177.394C197.776 177.087 197.81 176.763 197.775 176.442L188.366 68.9459C188.297 68.2636 187.981 67.6301 187.477 67.1653C186.973 66.7006 186.315 66.4369 185.63 66.4241H110.658C110.335 66.4193 110.015 66.4831 109.719 66.6113C109.423 66.7394 109.158 66.929 108.941 67.1674C108.724 67.4058 108.56 67.6876 108.459 67.9942C108.359 68.3009 108.325 68.6252 108.36 68.9459L117.77 176.442C117.839 177.127 118.157 177.762 118.664 178.227C119.172 178.693 119.833 178.955 120.521 178.964Z" fill="#263238"/>
<path d="M121.586 178.964H196.559C196.881 178.969 197.201 178.906 197.498 178.778C197.794 178.65 198.06 178.461 198.277 178.222C198.495 177.984 198.659 177.701 198.759 177.394C198.858 177.087 198.892 176.763 198.856 176.442L189.452 68.946C189.382 68.2633 189.065 67.6297 188.56 67.165C188.055 66.7004 187.397 66.4368 186.711 66.4242H111.744C111.421 66.4186 111.101 66.4818 110.804 66.6097C110.508 66.7376 110.242 66.9271 110.025 67.1657C109.807 67.4043 109.643 67.6865 109.544 67.9935C109.444 68.3004 109.411 68.6252 109.446 68.946L118.851 176.442C118.919 177.124 119.235 177.758 119.74 178.223C120.244 178.687 120.901 178.951 121.586 178.964Z" fill="#263238"/>
<path opacity="0.5" d="M121.586 178.964H196.559C196.881 178.969 197.201 178.906 197.498 178.778C197.794 178.65 198.06 178.461 198.277 178.222C198.495 177.984 198.659 177.701 198.759 177.394C198.858 177.087 198.892 176.763 198.856 176.442L189.452 68.946C189.382 68.2633 189.065 67.6297 188.56 67.165C188.055 66.7004 187.397 66.4368 186.711 66.4242H111.744C111.421 66.4186 111.101 66.4818 110.804 66.6097C110.508 66.7376 110.242 66.9271 110.025 67.1657C109.807 67.4043 109.643 67.6865 109.544 67.9935C109.444 68.3004 109.411 68.6252 109.446 68.946L118.851 176.442C118.919 177.124 119.235 177.758 119.74 178.223C120.244 178.687 120.901 178.951 121.586 178.964Z" fill="white"/>
<path opacity="0.2" d="M182.477 72.6328L191.469 175.06H123.894L114.902 72.6328H182.477Z" fill="black"/>
<path d="M182.889 72.6387L185.482 105.667C186.162 114.229 187.181 122.754 188.539 131.242L195.162 172.742H127.572L120.949 131.14C119.591 122.666 118.58 114.151 117.918 105.596L115.33 72.6387H182.889Z" fill="white"/>
<path d="M138.041 85.7672H163.377C163.57 85.7719 163.763 85.7339 163.94 85.6559C164.117 85.5779 164.275 85.4619 164.402 85.316C164.53 85.1701 164.624 84.998 164.677 84.8118C164.73 84.6257 164.742 84.43 164.711 84.2388L164.513 82.5932C164.456 82.1773 164.253 81.7952 163.94 81.5152C163.628 81.2352 163.226 81.0755 162.806 81.0649H137.466C137.272 81.06 137.08 81.098 136.903 81.176C136.726 81.254 136.568 81.3701 136.441 81.5161C136.314 81.6621 136.221 81.8344 136.168 82.0206C136.115 82.2068 136.104 82.4023 136.136 82.5932L136.335 84.2388C136.391 84.6547 136.594 85.0368 136.907 85.3169C137.219 85.5969 137.622 85.7565 138.041 85.7672Z" fill="#407BFF"/>
<path d="M127.343 119.82H181.738C181.932 119.825 182.124 119.787 182.301 119.709C182.478 119.631 182.636 119.515 182.763 119.369C182.89 119.223 182.983 119.05 183.036 118.864C183.088 118.678 183.099 118.482 183.068 118.292L182.869 116.646C182.812 116.23 182.61 115.848 182.297 115.568C181.984 115.288 181.582 115.128 181.162 115.118H126.767C126.574 115.113 126.382 115.151 126.204 115.229C126.027 115.307 125.869 115.423 125.742 115.569C125.614 115.715 125.521 115.887 125.467 116.073C125.414 116.259 125.402 116.455 125.433 116.646L125.636 118.292C125.693 118.707 125.896 119.09 126.209 119.37C126.521 119.65 126.924 119.809 127.343 119.82Z" fill="#407BFF"/>
<path opacity="0.5" d="M127.343 119.82H181.738C181.932 119.825 182.124 119.787 182.301 119.709C182.478 119.631 182.636 119.515 182.763 119.369C182.89 119.223 182.983 119.05 183.036 118.864C183.088 118.678 183.099 118.482 183.068 118.292L182.869 116.646C182.812 116.23 182.61 115.848 182.297 115.568C181.984 115.288 181.582 115.128 181.162 115.118H126.767C126.574 115.113 126.382 115.151 126.204 115.229C126.027 115.307 125.869 115.423 125.742 115.569C125.614 115.715 125.521 115.887 125.467 116.073C125.414 116.259 125.402 116.455 125.433 116.646L125.636 118.292C125.693 118.707 125.896 119.09 126.209 119.37C126.521 119.65 126.924 119.809 127.343 119.82Z" fill="white"/>
<path d="M160.865 92.7768H135.53C135.02 92.7768 134.939 91.9668 135.459 91.9668H160.794C161.304 91.9668 161.39 92.7768 160.865 92.7768Z" fill="#263238"/>
<path d="M124.735 95.0312H161.171C161.681 95.0312 161.767 95.8464 161.243 95.8464H124.801C124.292 95.8464 124.21 95.0312 124.735 95.0312Z" fill="#263238"/>
<path d="M166.454 95.9763H178.818C179.012 95.981 179.204 95.943 179.381 95.865C179.559 95.7871 179.717 95.671 179.844 95.5251C179.971 95.3793 180.065 95.2071 180.118 95.021C180.172 94.8348 180.184 94.6391 180.153 94.4479L179.949 92.8024C179.893 92.386 179.691 92.0033 179.378 91.7231C179.065 91.4429 178.662 91.2836 178.242 91.274H165.863C165.669 91.2684 165.476 91.3057 165.298 91.3834C165.12 91.4611 164.962 91.5771 164.835 91.7232C164.707 91.8693 164.613 92.0418 164.56 92.2284C164.507 92.415 164.496 92.611 164.528 92.8024L164.732 94.4479C164.789 94.8664 164.994 95.2505 165.31 95.5309C165.625 95.8112 166.031 95.9692 166.454 95.9763Z" fill="#263238"/>
<path opacity="0.7" d="M166.454 95.9763H178.818C179.012 95.981 179.204 95.943 179.381 95.865C179.559 95.7871 179.717 95.671 179.844 95.5251C179.971 95.3793 180.065 95.2071 180.118 95.021C180.172 94.8348 180.184 94.6391 180.153 94.4479L179.949 92.8024C179.893 92.386 179.691 92.0033 179.378 91.7231C179.065 91.4429 178.662 91.2836 178.242 91.274H165.863C165.669 91.2684 165.476 91.3057 165.298 91.3834C165.12 91.4611 164.962 91.5771 164.835 91.7232C164.707 91.8693 164.613 92.0418 164.56 92.2284C164.507 92.415 164.496 92.611 164.528 92.8024L164.732 94.4479C164.789 94.8664 164.994 95.2505 165.31 95.5309C165.625 95.8112 166.031 95.9692 166.454 95.9763Z" fill="white"/>
<path d="M173.424 105.407H179.97C180.164 105.411 180.356 105.373 180.534 105.295C180.711 105.217 180.869 105.101 180.996 104.955C181.124 104.81 181.217 104.637 181.271 104.451C181.324 104.265 181.336 104.069 181.305 103.878L181.198 103.017C181.143 102.602 180.941 102.22 180.629 101.94C180.317 101.659 179.916 101.5 179.497 101.489H172.945C172.751 101.483 172.558 101.521 172.381 101.598C172.203 101.676 172.044 101.792 171.917 101.938C171.789 102.084 171.696 102.257 171.643 102.443C171.59 102.63 171.578 102.826 171.61 103.017L171.717 103.878C171.774 104.294 171.977 104.676 172.289 104.956C172.602 105.236 173.004 105.396 173.424 105.407Z" fill="#263238"/>
<path d="M153.402 105.407H168.599C168.793 105.411 168.985 105.373 169.162 105.295C169.339 105.217 169.497 105.101 169.625 104.955C169.752 104.81 169.846 104.637 169.899 104.451C169.953 104.265 169.964 104.069 169.934 103.878L169.827 103.017C169.771 102.602 169.569 102.22 169.257 101.94C168.946 101.659 168.544 101.5 168.125 101.489H152.923C152.729 101.483 152.537 101.52 152.359 101.598C152.181 101.676 152.023 101.792 151.896 101.938C151.769 102.084 151.676 102.257 151.623 102.444C151.571 102.63 151.561 102.826 151.593 103.017L151.695 103.878C151.753 104.294 151.956 104.675 152.268 104.955C152.581 105.235 152.982 105.395 153.402 105.407Z" fill="#263238"/>
<path d="M137.165 105.407H148.582C148.775 105.41 148.967 105.372 149.144 105.294C149.321 105.215 149.478 105.099 149.605 104.954C149.733 104.808 149.826 104.636 149.88 104.45C149.934 104.265 149.946 104.069 149.917 103.878L149.81 103.017C149.754 102.601 149.551 102.218 149.238 101.938C148.925 101.658 148.523 101.498 148.103 101.489H136.691C136.497 101.483 136.304 101.521 136.127 101.598C135.949 101.676 135.791 101.792 135.663 101.938C135.535 102.084 135.442 102.257 135.389 102.443C135.336 102.63 135.325 102.826 135.356 103.017L135.458 103.878C135.517 104.293 135.72 104.674 136.032 104.954C136.345 105.234 136.746 105.394 137.165 105.407Z" fill="#263238"/>
<path d="M126.334 105.407H132.346C132.539 105.411 132.732 105.373 132.909 105.295C133.086 105.217 133.244 105.101 133.372 104.955C133.499 104.81 133.593 104.637 133.646 104.451C133.7 104.265 133.711 104.069 133.681 103.878L133.574 103.017C133.518 102.601 133.315 102.218 133.002 101.938C132.69 101.658 132.287 101.498 131.867 101.489H125.86C125.667 101.483 125.474 101.521 125.296 101.598C125.118 101.676 124.96 101.792 124.832 101.938C124.705 102.084 124.611 102.257 124.558 102.443C124.505 102.63 124.494 102.826 124.526 103.017L124.633 103.878C124.689 104.293 124.891 104.675 125.203 104.955C125.515 105.235 125.915 105.395 126.334 105.407Z" fill="#263238"/>
<path d="M169.256 111.108H180.668C180.861 111.113 181.054 111.076 181.232 110.998C181.41 110.92 181.568 110.804 181.696 110.658C181.823 110.512 181.917 110.34 181.97 110.153C182.023 109.967 182.034 109.771 182.002 109.579L181.895 108.718C181.839 108.303 181.637 107.922 181.325 107.642C181.013 107.362 180.612 107.202 180.194 107.19H168.777C168.583 107.185 168.391 107.223 168.214 107.301C168.036 107.379 167.878 107.495 167.751 107.641C167.624 107.787 167.53 107.959 167.476 108.145C167.423 108.331 167.411 108.527 167.442 108.718L167.549 109.579C167.605 109.996 167.807 110.378 168.12 110.658C168.433 110.939 168.836 111.098 169.256 111.108Z" fill="#263238"/>
<path d="M150.86 111.108H164.432C164.626 111.113 164.818 111.076 164.996 110.998C165.174 110.92 165.332 110.804 165.46 110.658C165.587 110.512 165.681 110.34 165.734 110.153C165.787 109.967 165.798 109.771 165.766 109.579L165.665 108.718C165.606 108.303 165.402 107.922 165.09 107.643C164.778 107.363 164.377 107.203 163.958 107.19H150.381C150.187 107.185 149.995 107.223 149.818 107.301C149.64 107.379 149.482 107.495 149.355 107.641C149.228 107.787 149.134 107.959 149.08 108.145C149.027 108.331 149.015 108.527 149.046 108.718L149.153 109.579C149.209 109.996 149.411 110.378 149.724 110.658C150.037 110.939 150.44 111.098 150.86 111.108Z" fill="#263238"/>
<path d="M139.489 111.108H146.036C146.23 111.113 146.423 111.076 146.6 110.998C146.778 110.92 146.936 110.804 147.064 110.658C147.192 110.512 147.285 110.34 147.338 110.153C147.391 109.967 147.402 109.771 147.371 109.579L147.264 108.718C147.207 108.302 147.004 107.92 146.692 107.64C146.379 107.36 145.977 107.201 145.557 107.19H139.011C138.817 107.185 138.625 107.223 138.447 107.301C138.27 107.379 138.112 107.495 137.985 107.641C137.857 107.787 137.764 107.959 137.71 108.145C137.657 108.331 137.645 108.527 137.676 108.718L137.783 109.579C137.839 109.996 138.041 110.378 138.354 110.658C138.667 110.939 139.07 111.098 139.489 111.108Z" fill="#263238"/>
<path d="M127.032 111.108H134.674C134.868 111.113 135.061 111.076 135.239 110.998C135.416 110.92 135.575 110.804 135.702 110.658C135.83 110.512 135.924 110.34 135.977 110.153C136.03 109.967 136.041 109.771 136.009 109.579L135.902 108.718C135.845 108.302 135.643 107.92 135.33 107.64C135.017 107.36 134.615 107.201 134.195 107.19H126.554C126.36 107.185 126.168 107.223 125.99 107.301C125.813 107.379 125.655 107.495 125.528 107.641C125.4 107.787 125.307 107.959 125.253 108.145C125.2 108.331 125.188 108.527 125.219 108.718L125.326 109.579C125.381 109.996 125.584 110.378 125.897 110.658C126.21 110.939 126.612 111.098 127.032 111.108Z" fill="#263238"/>
<g opacity="0.7">
<path d="M173.423 105.407H179.97C180.164 105.411 180.356 105.373 180.533 105.295C180.71 105.217 180.868 105.101 180.996 104.955C181.123 104.81 181.217 104.637 181.27 104.451C181.324 104.265 181.335 104.069 181.305 103.878L181.198 103.017C181.142 102.602 180.94 102.22 180.628 101.94C180.317 101.659 179.915 101.5 179.496 101.489H172.944C172.751 101.483 172.558 101.521 172.38 101.598C172.202 101.676 172.044 101.792 171.916 101.938C171.789 102.084 171.695 102.257 171.642 102.443C171.589 102.63 171.578 102.826 171.61 103.017L171.717 103.878C171.773 104.294 171.976 104.676 172.289 104.956C172.602 105.236 173.004 105.396 173.423 105.407Z" fill="white"/>
<path d="M153.401 105.407H168.598C168.792 105.411 168.984 105.373 169.162 105.295C169.339 105.217 169.497 105.101 169.624 104.955C169.752 104.81 169.845 104.637 169.899 104.451C169.952 104.265 169.964 104.069 169.933 103.878L169.826 103.017C169.771 102.602 169.569 102.22 169.257 101.94C168.945 101.659 168.544 101.5 168.125 101.489H152.922C152.729 101.483 152.536 101.52 152.359 101.598C152.181 101.676 152.023 101.792 151.896 101.938C151.768 102.084 151.675 102.257 151.623 102.444C151.571 102.63 151.56 102.826 151.593 103.017L151.695 103.878C151.752 104.294 151.955 104.675 152.268 104.955C152.58 105.235 152.982 105.395 153.401 105.407Z" fill="white"/>
<path d="M137.164 105.407H148.581C148.775 105.41 148.967 105.372 149.143 105.294C149.32 105.215 149.478 105.099 149.605 104.954C149.732 104.808 149.826 104.636 149.88 104.45C149.933 104.265 149.946 104.069 149.916 103.878L149.809 103.017C149.753 102.601 149.551 102.218 149.238 101.938C148.925 101.658 148.522 101.498 148.102 101.489H136.691C136.497 101.483 136.304 101.521 136.126 101.598C135.948 101.676 135.79 101.792 135.663 101.938C135.535 102.084 135.441 102.257 135.388 102.443C135.335 102.63 135.324 102.826 135.356 103.017L135.458 103.878C135.516 104.293 135.72 104.674 136.032 104.954C136.344 105.234 136.745 105.394 137.164 105.407Z" fill="white"/>
<path d="M126.334 105.407H132.345C132.539 105.411 132.731 105.373 132.909 105.295C133.086 105.217 133.244 105.101 133.371 104.955C133.499 104.81 133.592 104.637 133.646 104.451C133.699 104.265 133.711 104.069 133.68 103.878L133.573 103.017C133.517 102.601 133.315 102.218 133.002 101.938C132.689 101.658 132.286 101.498 131.867 101.489H125.86C125.666 101.483 125.473 101.521 125.296 101.598C125.118 101.676 124.96 101.792 124.832 101.938C124.704 102.084 124.611 102.257 124.558 102.443C124.505 102.63 124.494 102.826 124.525 103.017L124.632 103.878C124.689 104.293 124.891 104.675 125.203 104.955C125.514 105.235 125.915 105.395 126.334 105.407Z" fill="white"/>
<path d="M169.255 111.108H180.667C180.861 111.113 181.054 111.076 181.231 110.998C181.409 110.92 181.568 110.804 181.695 110.658C181.823 110.512 181.916 110.34 181.969 110.153C182.022 109.967 182.034 109.771 182.002 109.579L181.895 108.718C181.838 108.303 181.636 107.922 181.325 107.642C181.013 107.362 180.612 107.202 180.193 107.19H168.776C168.583 107.185 168.39 107.223 168.213 107.301C168.036 107.379 167.878 107.495 167.751 107.641C167.623 107.787 167.529 107.959 167.476 108.145C167.423 108.331 167.411 108.527 167.442 108.718L167.549 109.579C167.604 109.996 167.807 110.378 168.12 110.658C168.433 110.939 168.835 111.098 169.255 111.108Z" fill="white"/>
<path d="M150.859 111.108H164.431C164.625 111.113 164.818 111.076 164.996 110.998C165.173 110.92 165.332 110.804 165.459 110.658C165.587 110.512 165.681 110.34 165.734 110.153C165.787 109.967 165.798 109.771 165.766 109.579L165.664 108.718C165.606 108.303 165.402 107.922 165.09 107.643C164.778 107.363 164.377 107.203 163.958 107.19H150.38C150.187 107.185 149.995 107.223 149.817 107.301C149.64 107.379 149.482 107.495 149.355 107.641C149.227 107.787 149.133 107.959 149.08 108.145C149.027 108.331 149.015 108.527 149.046 108.718L149.153 109.579C149.208 109.996 149.411 110.378 149.724 110.658C150.037 110.939 150.439 111.098 150.859 111.108Z" fill="white"/>
<path d="M139.488 111.108H146.034C146.228 111.113 146.421 111.076 146.598 110.998C146.776 110.92 146.935 110.804 147.062 110.658C147.19 110.512 147.283 110.34 147.336 110.153C147.389 109.967 147.401 109.771 147.369 109.579L147.262 108.718C147.205 108.302 147.002 107.92 146.69 107.64C146.377 107.36 145.975 107.201 145.555 107.19H139.009C138.815 107.185 138.623 107.223 138.445 107.301C138.268 107.379 138.11 107.495 137.983 107.641C137.855 107.787 137.762 107.959 137.708 108.145C137.655 108.331 137.643 108.527 137.674 108.718L137.781 109.579C137.837 109.996 138.039 110.378 138.352 110.658C138.665 110.939 139.068 111.098 139.488 111.108Z" fill="white"/>
<path d="M127.032 111.108H134.674C134.868 111.113 135.06 111.076 135.238 110.998C135.416 110.92 135.574 110.804 135.702 110.658C135.829 110.512 135.923 110.34 135.976 110.153C136.029 109.967 136.04 109.771 136.009 109.579L135.902 108.718C135.845 108.302 135.642 107.92 135.329 107.64C135.017 107.36 134.615 107.201 134.195 107.19H126.553C126.359 107.185 126.167 107.223 125.99 107.301C125.813 107.379 125.655 107.495 125.527 107.641C125.4 107.787 125.306 107.959 125.253 108.145C125.199 108.331 125.188 108.527 125.218 108.718L125.325 109.579C125.381 109.996 125.584 110.378 125.896 110.658C126.209 110.939 126.612 111.098 127.032 111.108Z" fill="white"/>
</g>
<path d="M148.72 168.595H131.118C130.609 168.595 130.527 167.785 131.047 167.785H148.649C149.158 167.785 149.245 168.595 148.72 168.595Z" fill="#263238"/>
<path d="M189.211 168.595H171.609C171.1 168.595 171.019 167.785 171.538 167.785H189.14C189.649 167.785 189.736 168.595 189.211 168.595Z" fill="#263238"/>
<path d="M186.16 143.667H163.693C163.184 143.667 163.097 142.857 163.622 142.857H186.089C186.598 142.857 186.68 143.667 186.16 143.667Z" fill="#263238"/>
<path d="M164.004 145.953H186.471C186.981 145.953 187.062 146.763 186.542 146.763H164.075C163.566 146.763 163.479 145.953 164.004 145.953Z" fill="#263238"/>
<path d="M164.386 149.072H186.853C187.363 149.072 187.444 149.882 186.925 149.882H164.457C163.948 149.882 163.861 149.072 164.386 149.072Z" fill="#263238"/>
<path d="M164.768 152.191H187.26C187.77 152.191 187.851 153.001 187.327 153.001H164.844C164.335 153.001 164.248 152.191 164.773 152.191H164.768Z" fill="#263238"/>
<path d="M165.15 155.309H187.618C188.127 155.309 188.209 156.124 187.684 156.124H165.222C164.712 156.124 164.626 155.309 165.15 155.309Z" fill="#263238"/>
<path d="M152.566 143.667H134.964C134.455 143.667 134.373 142.857 134.893 142.857H152.495C153.004 142.857 153.091 143.667 152.566 143.667Z" fill="#263238"/>
<path d="M135.296 145.953H152.898C153.407 145.953 153.494 146.763 152.969 146.763H135.347C134.838 146.763 134.751 145.953 135.276 145.953H135.296Z" fill="#263238"/>
<path d="M135.658 149.072H153.26C153.769 149.072 153.851 149.882 153.331 149.882H135.729C135.22 149.882 135.133 149.072 135.658 149.072Z" fill="#263238"/>
<path d="M136.04 152.191H153.637C154.146 152.191 154.228 153.001 153.708 153.001H136.111C135.602 153.001 135.515 152.191 136.04 152.191Z" fill="#263238"/>
<path d="M136.421 155.309H154.022C154.532 155.309 154.613 156.124 154.094 156.124H136.492C135.983 156.124 135.896 155.309 136.421 155.309Z" fill="#263238"/>
<path d="M126.568 127.59L127.032 131.375L127.495 135.161L127.959 138.941H185.798L185.288 134.753L184.825 130.968L184.361 127.188L183.898 123.402H126.053L126.568 127.59ZM136.89 125.496L137.093 127.188H126.904L126.492 123.805H136.681L136.89 125.496ZM137.756 129.282L137.552 127.59H155.286L155.495 129.282L155.699 130.968H137.965L137.756 129.282ZM155.673 127.59H173.408L173.617 129.282L173.82 130.968H156.106L155.898 129.282L155.673 127.59ZM174.284 134.753H156.57L156.361 133.062L156.157 131.375H173.892L174.101 133.062L174.284 134.753ZM156.142 134.753H138.428L138.219 133.062L138.01 131.375H155.75L155.954 133.062L156.142 134.753ZM155.011 125.496L155.215 127.188H137.501L137.292 125.496L137.088 123.805H154.823L155.011 125.496ZM173.153 125.496L173.357 127.188H155.643L155.434 125.496L155.23 123.805H172.965L173.153 125.496ZM183.933 127.188H173.744L173.535 125.496L173.331 123.805H183.521L183.933 127.188ZM184.397 130.968H174.208L173.999 129.282L173.795 127.59H183.984L184.397 130.968ZM184.86 134.753H174.671L174.462 133.062L174.259 131.375H184.448L184.86 134.753ZM174.946 136.847L174.743 135.161H184.932L185.344 138.538H175.155L174.946 136.847ZM156.804 136.847L156.596 135.161H174.335L174.539 136.847L174.748 138.538H157.034L156.804 136.847ZM138.663 136.847L138.454 135.161H156.193L156.397 136.847L156.606 138.538H138.892L138.663 136.847ZM127.882 135.161H138.072L138.275 136.847L138.484 138.538H128.295L127.882 135.161ZM127.419 131.375H137.608L137.812 133.062L138.021 134.753H127.831L127.419 131.375ZM126.955 127.59H137.144L137.348 129.282L137.557 130.968H127.368L126.955 127.59Z" fill="#407BFF"/>
<path opacity="0.5" d="M126.568 127.59L127.032 131.375L127.495 135.161L127.959 138.941H185.798L185.288 134.753L184.825 130.968L184.361 127.188L183.898 123.402H126.053L126.568 127.59ZM136.89 125.496L137.093 127.188H126.904L126.492 123.805H136.681L136.89 125.496ZM137.756 129.282L137.552 127.59H155.286L155.495 129.282L155.699 130.968H137.965L137.756 129.282ZM155.673 127.59H173.408L173.617 129.282L173.82 130.968H156.106L155.898 129.282L155.673 127.59ZM174.284 134.753H156.57L156.361 133.062L156.157 131.375H173.892L174.101 133.062L174.284 134.753ZM156.142 134.753H138.428L138.219 133.062L138.01 131.375H155.75L155.954 133.062L156.142 134.753ZM155.011 125.496L155.215 127.188H137.501L137.292 125.496L137.088 123.805H154.823L155.011 125.496ZM173.153 125.496L173.357 127.188H155.643L155.434 125.496L155.23 123.805H172.965L173.153 125.496ZM183.933 127.188H173.744L173.535 125.496L173.331 123.805H183.521L183.933 127.188ZM184.397 130.968H174.208L173.999 129.282L173.795 127.59H183.984L184.397 130.968ZM184.86 134.753H174.671L174.462 133.062L174.259 131.375H184.448L184.86 134.753ZM174.946 136.847L174.743 135.161H184.932L185.344 138.538H175.155L174.946 136.847ZM156.804 136.847L156.596 135.161H174.335L174.539 136.847L174.748 138.538H157.034L156.804 136.847ZM138.663 136.847L138.454 135.161H156.193L156.397 136.847L156.606 138.538H138.892L138.663 136.847ZM127.882 135.161H138.072L138.275 136.847L138.484 138.538H128.295L127.882 135.161ZM127.419 131.375H137.608L137.812 133.062L138.021 134.753H127.831L127.419 131.375ZM126.955 127.59H137.144L137.348 129.282L137.557 130.968H127.368L126.955 127.59Z" fill="white"/>
<path d="M130.006 146.213H131.683C131.754 146.214 131.826 146.199 131.891 146.17C131.957 146.141 132.016 146.098 132.064 146.045C132.112 145.992 132.149 145.929 132.171 145.86C132.193 145.792 132.2 145.719 132.192 145.648L131.988 143.972C131.967 143.818 131.891 143.677 131.776 143.574C131.66 143.47 131.512 143.411 131.357 143.406H129.675C129.603 143.406 129.532 143.421 129.466 143.45C129.401 143.479 129.342 143.521 129.294 143.575C129.246 143.628 129.209 143.691 129.187 143.76C129.165 143.828 129.158 143.9 129.166 143.972L129.37 145.648C129.392 145.802 129.469 145.943 129.585 146.047C129.702 146.15 129.851 146.209 130.006 146.213Z" fill="#407BFF"/>
<path d="M130.379 149.272H132.06C132.132 149.272 132.203 149.258 132.269 149.229C132.335 149.2 132.394 149.157 132.442 149.104C132.49 149.05 132.526 148.987 132.548 148.919C132.57 148.85 132.578 148.778 132.57 148.706L132.366 147.03C132.343 146.876 132.267 146.735 132.15 146.632C132.034 146.528 131.885 146.469 131.729 146.465H130.053C129.981 146.464 129.91 146.479 129.844 146.508C129.778 146.537 129.719 146.58 129.671 146.633C129.623 146.687 129.587 146.75 129.565 146.818C129.543 146.887 129.536 146.959 129.543 147.03L129.747 148.706C129.769 148.86 129.844 149.001 129.96 149.105C130.075 149.208 130.224 149.267 130.379 149.272Z" fill="#407BFF"/>
<path d="M130.756 152.327H132.433C132.504 152.328 132.575 152.313 132.64 152.284C132.705 152.256 132.764 152.214 132.812 152.161C132.86 152.108 132.897 152.045 132.919 151.978C132.941 151.91 132.949 151.838 132.942 151.767L132.733 150.086C132.711 149.933 132.636 149.792 132.52 149.69C132.405 149.587 132.256 149.529 132.101 149.525H130.425C130.354 149.525 130.283 149.54 130.218 149.568C130.152 149.597 130.094 149.639 130.046 149.692C129.998 149.745 129.961 149.807 129.939 149.875C129.917 149.943 129.909 150.015 129.916 150.086L130.125 151.767C130.146 151.92 130.222 152.061 130.338 152.163C130.453 152.266 130.602 152.324 130.756 152.327Z" fill="#407BFF"/>
<path d="M131.133 155.385H132.809C132.881 155.386 132.952 155.371 133.018 155.342C133.084 155.313 133.143 155.27 133.191 155.217C133.239 155.163 133.275 155.1 133.297 155.032C133.319 154.964 133.327 154.891 133.319 154.82L133.115 153.144C133.093 152.989 133.017 152.847 132.901 152.744C132.784 152.64 132.634 152.581 132.478 152.578H130.802C130.73 152.578 130.659 152.592 130.593 152.622C130.527 152.651 130.469 152.693 130.42 152.747C130.372 152.8 130.336 152.863 130.314 152.931C130.292 153 130.285 153.072 130.293 153.144L130.496 154.82C130.519 154.974 130.595 155.115 130.712 155.218C130.828 155.322 130.977 155.381 131.133 155.385Z" fill="#407BFF"/>
<path opacity="0.5" d="M130.379 149.272H132.06C132.132 149.272 132.203 149.258 132.269 149.229C132.335 149.2 132.394 149.157 132.442 149.104C132.49 149.05 132.526 148.987 132.548 148.919C132.57 148.85 132.578 148.778 132.57 148.706L132.366 147.03C132.343 146.876 132.267 146.735 132.15 146.632C132.034 146.528 131.885 146.469 131.729 146.465H130.053C129.981 146.464 129.91 146.479 129.844 146.508C129.778 146.537 129.719 146.58 129.671 146.633C129.623 146.687 129.587 146.75 129.565 146.818C129.543 146.887 129.536 146.959 129.543 147.03L129.747 148.706C129.769 148.86 129.844 149.001 129.96 149.105C130.075 149.208 130.224 149.267 130.379 149.272Z" fill="white"/>
<path opacity="0.5" d="M131.133 155.385H132.809C132.881 155.386 132.952 155.371 133.018 155.342C133.084 155.313 133.143 155.27 133.191 155.217C133.239 155.163 133.275 155.1 133.297 155.032C133.319 154.964 133.327 154.891 133.319 154.82L133.115 153.144C133.093 152.989 133.017 152.847 132.901 152.744C132.784 152.64 132.634 152.581 132.478 152.578H130.802C130.73 152.578 130.659 152.592 130.593 152.622C130.527 152.651 130.469 152.693 130.42 152.747C130.372 152.8 130.336 152.863 130.314 152.931C130.292 153 130.285 153.072 130.293 153.144L130.496 154.82C130.519 154.974 130.595 155.115 130.712 155.218C130.828 155.322 130.977 155.381 131.133 155.385Z" fill="white"/>
<path d="M138.494 64.5782H145.117L144.098 62.087C143.767 61.3024 144.465 60.5586 145.505 60.5586H151.954C152.973 60.5586 153.824 61.3177 153.63 62.087L153.019 64.5782H159.642C160.628 64.5944 161.573 64.9716 162.299 65.6383C163.025 66.305 163.481 67.2149 163.58 68.1954L164.09 74.0083C164.119 74.2742 164.091 74.5431 164.008 74.7973C163.925 75.0515 163.789 75.2852 163.608 75.4827C163.428 75.6803 163.208 75.8372 162.962 75.9432C162.717 76.0491 162.452 76.1016 162.184 76.0971H137.97C137.402 76.0863 136.858 75.8678 136.44 75.4829C136.022 75.098 135.76 74.5735 135.703 74.0083L135.193 68.1954C135.142 67.7348 135.19 67.2686 135.334 66.828C135.478 66.3874 135.713 65.9825 136.026 65.6402C136.338 65.2979 136.72 65.0262 137.146 64.843C137.571 64.6599 138.031 64.5696 138.494 64.5782Z" fill="#407BFF"/>
<path opacity="0.2" d="M153.021 64.5786H145.109L144.492 63.1113H153.382L153.021 64.5786Z" fill="black"/>
<path d="M158.349 72.6122C158.38 72.9169 158.522 73.1996 158.747 73.407C158.972 73.6145 159.266 73.7323 159.572 73.7382C159.715 73.7389 159.857 73.7095 159.988 73.6517C160.119 73.594 160.237 73.5092 160.333 73.4029C160.429 73.2967 160.502 73.1713 160.546 73.0351C160.591 72.8988 160.606 72.7548 160.591 72.6122C160.56 72.3076 160.418 72.0249 160.193 71.8174C159.968 71.61 159.674 71.4922 159.368 71.4863C159.225 71.4856 159.083 71.515 158.952 71.5728C158.821 71.6305 158.703 71.7153 158.607 71.8215C158.511 71.9278 158.438 72.0532 158.394 72.1894C158.349 72.3256 158.334 72.4697 158.349 72.6122Z" fill="#263238"/>
<path d="M138.934 72.6123C138.966 72.9174 139.108 73.2002 139.334 73.4075C139.561 73.6148 139.855 73.7324 140.161 73.7382C140.305 73.739 140.447 73.7095 140.578 73.6518C140.709 73.594 140.826 73.5092 140.922 73.403C141.019 73.2967 141.091 73.1714 141.136 73.0351C141.18 72.8989 141.195 72.7548 141.18 72.6123C141.15 72.3072 141.009 72.0239 140.784 71.8162C140.558 71.6086 140.264 71.4912 139.958 71.4864C139.814 71.4849 139.671 71.5138 139.54 71.5712C139.408 71.6287 139.29 71.7133 139.193 71.8197C139.096 71.926 139.023 72.0516 138.978 72.1882C138.934 72.3248 138.918 72.4693 138.934 72.6123Z" fill="#263238"/>
<path d="M181.778 164.477L151.822 170.336C151.489 170.413 151.144 170.418 150.809 170.352C150.474 170.286 150.157 170.149 149.879 169.951C149.601 169.753 149.367 169.499 149.195 169.204C149.022 168.909 148.914 168.582 148.877 168.242L148.368 163.688C148.309 162.967 148.518 162.25 148.954 161.673C149.39 161.096 150.023 160.7 150.732 160.559L180.688 154.701C181.021 154.624 181.367 154.618 181.702 154.685C182.037 154.751 182.354 154.887 182.633 155.085C182.912 155.283 183.145 155.538 183.319 155.832C183.492 156.127 183.601 156.455 183.638 156.795L184.147 161.349C184.206 162.071 183.997 162.788 183.56 163.365C183.123 163.942 182.489 164.338 181.778 164.477ZM150.818 161.319C150.316 161.418 149.867 161.699 149.558 162.108C149.249 162.516 149.101 163.024 149.142 163.535L149.652 168.089C149.678 168.33 149.755 168.562 149.877 168.771C150 168.98 150.165 169.16 150.363 169.3C150.56 169.44 150.785 169.537 151.023 169.584C151.26 169.631 151.505 169.627 151.741 169.572L181.692 163.718C182.195 163.618 182.644 163.337 182.954 162.927C183.263 162.518 183.41 162.008 183.368 161.497L182.858 156.942C182.832 156.702 182.755 156.471 182.633 156.262C182.511 156.054 182.346 155.875 182.149 155.735C181.952 155.595 181.728 155.499 181.491 155.452C181.254 155.406 181.01 155.41 180.775 155.465L150.818 161.319Z" fill="#407BFF"/>
<path d="M155.063 165.64L153.535 165.935L153.321 166.679L152.551 166.832L153.647 163.347L154.391 163.199L156.204 166.113L155.409 166.271L155.063 165.64ZM154.762 165.13L154.11 164.004L153.728 165.334L154.762 165.13Z" fill="#407BFF"/>
<path d="M158.374 162.57C158.584 162.611 158.775 162.721 158.916 162.883C159.057 163.044 159.141 163.248 159.154 163.462C159.181 163.683 159.144 163.908 159.047 164.109C158.951 164.318 158.797 164.495 158.603 164.618C158.378 164.76 158.127 164.857 157.865 164.903L157.213 165.031L157.309 165.917L156.555 166.06L156.199 162.86L157.61 162.585C157.861 162.527 158.121 162.521 158.374 162.57ZM158.257 164.053C158.311 163.993 158.351 163.923 158.374 163.846C158.397 163.769 158.402 163.688 158.389 163.609C158.387 163.533 158.365 163.458 158.326 163.392C158.287 163.326 158.232 163.271 158.165 163.232C158.006 163.159 157.826 163.143 157.656 163.186L157.039 163.309L157.167 164.419L157.778 164.297C157.961 164.269 158.129 164.181 158.257 164.047V164.053Z" fill="#407BFF"/>
<path d="M161.731 161.912C161.937 161.957 162.124 162.066 162.266 162.223C162.409 162.384 162.495 162.588 162.511 162.803C162.538 163.025 162.501 163.25 162.404 163.45C162.308 163.659 162.154 163.836 161.96 163.96C161.737 164.103 161.488 164.2 161.227 164.245L160.57 164.372L160.666 165.259L159.912 165.407L159.556 162.202L160.967 161.927C161.218 161.868 161.478 161.863 161.731 161.912ZM161.614 163.394C161.668 163.335 161.708 163.264 161.731 163.188C161.753 163.111 161.759 163.03 161.746 162.951C161.744 162.874 161.722 162.8 161.683 162.734C161.644 162.668 161.588 162.613 161.522 162.574C161.362 162.503 161.183 162.487 161.013 162.528L160.396 162.65L160.524 163.761L161.135 163.639C161.318 163.613 161.486 163.527 161.614 163.394Z" fill="#407BFF"/>
<path d="M165.354 164.33L164.626 163.561H164.585L163.933 163.688L164.029 164.58L163.275 164.727L162.919 161.528L164.33 161.253C164.583 161.194 164.846 161.194 165.099 161.253C165.305 161.297 165.492 161.404 165.634 161.559C165.773 161.722 165.857 161.925 165.874 162.139C165.902 162.363 165.864 162.589 165.767 162.791C165.667 163 165.512 163.176 165.318 163.301L166.159 164.187L165.354 164.33ZM164.885 161.915C164.725 161.844 164.545 161.83 164.376 161.874L163.759 161.992L163.887 163.107L164.498 162.99C164.691 162.967 164.871 162.879 165.008 162.741C165.063 162.682 165.104 162.612 165.127 162.535C165.15 162.458 165.155 162.376 165.14 162.297C165.135 162.216 165.108 162.138 165.062 162.071C165.017 162.003 164.954 161.95 164.88 161.915H164.885Z" fill="#407BFF"/>
<path d="M167.336 163.78C167.058 163.695 166.812 163.527 166.631 163.3C166.449 163.073 166.34 162.797 166.317 162.507C166.28 162.203 166.328 161.894 166.455 161.615C166.581 161.332 166.777 161.084 167.025 160.897C167.288 160.698 167.593 160.564 167.917 160.505C168.226 160.439 168.546 160.451 168.849 160.54C169.124 160.625 169.368 160.788 169.552 161.009C169.74 161.238 169.853 161.519 169.878 161.814C169.915 162.118 169.868 162.427 169.741 162.705C169.612 162.988 169.416 163.235 169.17 163.424C168.909 163.621 168.605 163.755 168.284 163.816C167.97 163.884 167.644 163.871 167.336 163.78ZM168.711 162.95C168.853 162.835 168.964 162.686 169.032 162.517C169.104 162.341 169.131 162.15 169.109 161.962C169.092 161.777 169.025 161.601 168.915 161.452C168.813 161.318 168.673 161.216 168.513 161.162C168.339 161.103 168.152 161.093 167.973 161.131C167.786 161.166 167.611 161.247 167.463 161.366C167.319 161.479 167.206 161.628 167.137 161.799C167.067 161.975 167.043 162.166 167.066 162.354C167.081 162.538 167.147 162.714 167.254 162.863C167.359 162.998 167.5 163.099 167.662 163.154C167.826 163.208 168.002 163.219 168.171 163.184C168.369 163.155 168.555 163.074 168.711 162.95Z" fill="#407BFF"/>
<path d="M173.28 159.51L172.231 162.984L171.487 163.132L169.724 160.203L170.54 160.045L171.783 162.139L172.532 159.658L173.28 159.51Z" fill="#407BFF"/>
<path d="M176.363 161.572L176.429 162.168L173.907 162.678L173.551 159.473L176.011 158.994L176.078 159.59L174.366 159.921L174.442 160.619L175.971 160.324L176.037 160.9L174.508 161.195L174.59 161.934L176.363 161.572Z" fill="#407BFF"/>
<path d="M176.674 158.849L178.151 158.559C178.466 158.483 178.794 158.483 179.109 158.559C179.381 158.63 179.625 158.783 179.807 158.997C179.989 159.225 180.099 159.501 180.123 159.792C180.163 160.094 180.117 160.401 179.99 160.678C179.866 160.953 179.668 161.189 179.42 161.361C179.149 161.556 178.837 161.687 178.508 161.743L177.03 162.034L176.674 158.849ZM178.401 161.157C178.693 161.114 178.959 160.965 179.15 160.74C179.236 160.63 179.299 160.504 179.336 160.369C179.373 160.234 179.382 160.093 179.364 159.955C179.356 159.823 179.319 159.694 179.254 159.579C179.19 159.463 179.1 159.363 178.992 159.288C178.871 159.216 178.737 159.169 178.598 159.15C178.459 159.131 178.317 159.14 178.182 159.175L177.494 159.308L177.713 161.295L178.401 161.157Z" fill="#407BFF"/>
</svg>
